<svg xmlns="http://www.w3.org/2000/svg" viewBox="61.255 112.036 354.78 310.641" width="354.78" height="310.641" fill="currentColor" stroke="currentColor">
  <path d="M164.768 198.753l-95.528 97.67c-10.647 10.756-10.647 28.293 0 39.064s27.859 10.756 38.506 0l95.841-97.234" stroke-width="4"/>
  <path d="M251.552 268.444l33.462-34.05c5.043-5.148 5.043-13.481 0-18.618L186.858 115.896c-5.061-5.147-13.252-5.147-18.299 0l-33.459 34.049c-5.046 5.134-5.046 13.469 0 18.617l98.156 99.882c5.047 5.136 13.237 5.136 18.295 0Z" stroke-width="5"/>
  <path d="M333.182 187.174h68.921c7.293 0 13.198 5.905 13.198 13.198v72.683c0 7.293-5.905 13.198-13.198 13.198h-68.921c-7.293 0-13.198-5.905-13.198-13.198v-72.683c0-7.293 5.905-13.198 13.198-13.198ZM334.649 208.283v56.862c0 3.238 2.628 5.866 5.866 5.866h54.255c3.237 0 5.865-2.628 5.865-5.866v-56.862c0-3.238-2.628-5.866-5.865-5.866h-54.255c-3.238 0-5.866 2.628-5.866 5.866Z" stroke-width="2"/>
  <path d="M333.916 323.596h68.921c7.293 0 13.198 5.905 13.198 13.198v72.683c0 7.293-5.905 13.198-13.198 13.198h-68.921c-7.293 0-13.198-5.905-13.198-13.198v-72.683c0-7.293 5.905-13.198 13.198-13.198ZM335.383 344.705v56.862c0 3.238 2.628 5.866 5.866 5.866h54.256c3.237 0 5.865-2.628 5.865-5.866v-56.862c0-3.238-2.628-5.866-5.865-5.866h-54.256c-3.238 0-5.866 2.628-5.866 5.866Z" stroke-width="2"/>
  <path d="M200.471 323.598h68.921c7.293 0 13.198 5.905 13.198 13.198v72.683c0 7.293-5.905 13.198-13.198 13.198h-68.921c-7.293 0-13.198-5.905-13.198-13.198v-72.683c0-7.293 5.905-13.198 13.198-13.198ZM201.938 344.707v56.862c0 3.238 2.628 5.866 5.866 5.866h54.255c3.237 0 5.866-2.628 5.866-5.866v-56.862c0-3.238-2.629-5.866-5.866-5.866h-54.255c-3.238 0-5.866 2.628-5.866 5.866Z" stroke-width="2"/>
</svg>